<svg width="14" height="14" viewBox="0 0 14 14" fill="none" xmlns="http://www.w3.org/2000/svg">
<g id="github">
<path id="path" fill-rule="evenodd" clip-rule="evenodd" d="M7.00496 1C3.68437 1 1 3.74999 1 7.1521C1 9.87159 2.71997 12.1736 5.10603 12.9883C5.40435 13.0496 5.51362 12.856 5.51362 12.6931C5.51362 12.5505 5.50378 12.0616 5.50378 11.5522C3.83335 11.919 3.4855 10.8188 3.4855 10.8188C3.21705 10.1058 2.81929 9.92259 2.81929 9.92259C2.27255 9.54571 2.85911 9.54571 2.85911 9.54571C3.46558 9.58646 3.78381 10.1772 3.78381 10.1772C4.32059 11.1142 5.18555 10.8495 5.53353 10.6865C5.58319 10.2892 5.74237 10.0142 5.91138 9.86146C4.57908 9.71884 3.17734 9.18922 3.17734 6.8261C3.17734 6.15385 3.4158 5.60386 3.79365 5.17611C3.73403 5.02336 3.5252 4.39174 3.85338 3.54636C3.85338 3.54636 4.36042 3.38337 5.50366 4.17786C5.99313 4.0432 6.4979 3.97469 7.00496 3.97411C7.512 3.97411 8.02886 4.04549 8.50614 4.17786C9.64951 3.38337 10.1565 3.54636 10.1565 3.54636C10.4847 4.39174 10.2758 5.02336 10.2162 5.17611C10.604 5.60386 10.8326 6.15385 10.8326 6.8261C10.8326 9.18922 9.43085 9.70859 8.0886 9.86146C8.30739 10.055 8.49619 10.4216 8.49619 11.0022C8.49619 11.8272 8.48635 12.4893 8.48635 12.693C8.48635 12.856 8.59575 13.0496 8.89395 12.9885C11.28 12.1735 13 9.87159 13 7.1521C13.0098 3.74999 10.3156 1 7.00496 1Z" fill="black"/>
</g>
</svg>
