<svg width="14" height="14" viewBox="0 0 14 14" fill="none" xmlns="http://www.w3.org/2000/svg">
<g id="skip" clip-path="url(#clip0_24_11)">
<path id="left" d="M7.31456 5.67219C8.22848 6.30385 8.22848 7.69615 7.31456 8.32781L2.39312 11.7293C1.37018 12.4363 -4.65398e-08 11.6761 0 10.4015L2.48402e-07 3.59851C2.94942e-07 2.32393 1.37019 1.56369 2.39312 2.2707L7.31456 5.67219Z" fill="black"/>
<path id="right" fill-rule="evenodd" clip-rule="evenodd" d="M8.97032 8.85894C10.3573 7.97461 10.3573 6.0254 8.97032 5.14107L6 3.24719C6.22414 2.19173 7.43848 1.63142 8.36763 2.2707L13.3114 5.67219C14.2295 6.30385 14.2295 7.69615 13.3114 8.32781L8.36762 11.7293C7.43848 12.3686 6.22414 11.8083 6 10.7528L8.97032 8.85894Z" fill="black"/>
</g>
<defs>
<clipPath id="clip0_24_11">
<rect width="14" height="14" fill="white"/>
</clipPath>
</defs>
</svg>
