<svg width="14" height="14" viewBox="0 0 14 14" fill="none" xmlns="http://www.w3.org/2000/svg">
<g id="skip">
<path id="left" d="M7.26261 5.67219C8.17004 6.30385 8.17004 7.69615 7.26261 8.32781L2.37613 11.7293C1.36045 12.4363 -4.62093e-08 11.6761 0 10.4015L2.46638e-07 3.59851C2.92847e-07 2.32393 1.36046 1.56369 2.37613 2.2707L7.26261 5.67219Z" fill="black"/>
<path id="right" fill-rule="evenodd" clip-rule="evenodd" d="M8.97183 8.85894C10.3427 7.97461 10.3427 6.0254 8.97183 5.14107L6.03596 3.24719C6.2575 2.19173 7.45776 1.63143 8.37613 2.2707L13.2626 5.67219C14.17 6.30385 14.17 7.69615 13.2626 8.32781L8.37612 11.7293C7.45776 12.3686 6.2575 11.8083 6.03596 10.7528L8.97183 8.85894Z" fill="black"/>
</g>
</svg>
