<svg width="1024" height="576" viewBox="0 0 1024 576" fill="none" xmlns="http://www.w3.org/2000/svg">
  <style>
    @keyframes anim-left-to-right-pulse {
      0% {
        transform: translateX(0px);
        opacity: 1;
      }
      5% {
        transform: translateX(0px);
      }
      10% {
        transform: translateX(10px);
      }
      15% {
        transform: translateX(0px);
        opacity: 1;
      }
      20% {
        transform: translateX(30px);
        opacity: 0;
      }

      95% {
        transform: translateX(-30px);
        opacity: 0;
      }
      100% {
        transform: translateX(0px);
        opacity: 1;
      }
    }

    @keyframes anim-left-to-right-show-hide {
      0% {
        transform: translateX(-30px);
        opacity: 0;
      }
      15% {
        transform: translateX(-30px);
        opacity: 0;
      }
      20% {
        transform: translateX(0px);
        opacity: 1;
      }
      25% {
        transform: translateX(0px);
        opacity: 1;
      }
      30% {
        transform: translateX(30px);
        opacity: 0;
      }

    }

    @keyframes anim-stretch-left-to-right {
      0% {
        width: 73%;
      }
      6% {
        width: 73%;
      }
      20% {
        width: 3%;
      }
      46% {
        width: 3%;
      }
    }

    @keyframes anim-short-appear-and-spin {
      0% {
        opacity: 0;
        transform: rotate(0deg);
      }

      6% {
        opacity: 0;
      }
      8% {
        opacity: 1;
      }
      14% {
        opacity: 1;
      }
      16% {
        opacity: 0;
      }

      28% {
        opacity: 0;
      }
      30% {
        opacity: 1;
      }
      48% {
        opacity: 1;
      }
      50% {
        opacity: 0;
      }

      100% {
        opacity: 0;
        transform: rotate(2160deg);
      }
    }

    #player-skipper {
      animation-name: anim-left-to-right-pulse;
      animation-duration: 4s;
      animation-iteration-count: infinite;
      animation-direction: normal;
    }

    #player-play {
      animation-name: anim-left-to-right-show-hide;
      animation-duration: 4s;
      animation-iteration-count: infinite;
      animation-direction: normal;
    }

    #player-timeline-watched {
      animation-name: anim-stretch-left-to-right;
      animation-duration: 4s;
      animation-iteration-count: infinite;
      animation-direction: normal;
    }

    #player-loader {
      animation-name: anim-short-appear-and-spin;
      animation-duration: 4s;
      animation-iteration-count: infinite;
      animation-direction: normal;
      animation-timing-function: linear;
      transform-origin: center;
    }
  </style>
  <g id="autoplay-element" clip-path="url(#clip0_0_1)">
    <rect id="bg" width="1024" height="576" rx="30" fill="url(#green-gradient)"/>
    <g id="player-timeline">
      <rect id="player-timeline-remaining" x="36" y="475" width="951" height="36" rx="18" fill="white"/>
      <rect id="player-timeline-watched" x="36" y="475" width="751" height="36" rx="18" fill="#9BC76C"/>
    </g>
    <g id="player-skipper">
      <rect id="player-skipper-bg" x="727" y="346" width="260" height="90" rx="45" fill="white"/>
      <path id="player-skipper-triangle" d="M953 387.036C955.667 388.575 955.667 392.425 953 393.964L922.25 411.718C919.583 413.257 916.25 411.333 916.25 408.254L916.25 372.746C916.25 369.667 919.583 367.743 922.25 369.282L953 387.036Z" fill="#9BC76C"/>
    </g>
    <path id="player-loader" opacity="0" d="M577.932 287.5C582.94 287.5 587.056 283.425 586.456 278.453C585.109 267.291 581.28 256.531 575.205 246.98C567.502 234.869 556.506 225.205 543.507 219.12C530.507 213.035 516.042 210.782 501.808 212.625C487.574 214.467 474.159 220.329 463.137 229.523C452.115 238.717 443.943 250.863 439.577 264.536C435.211 278.209 434.834 292.843 438.488 306.724C442.143 320.604 449.678 333.155 460.211 342.905C468.518 350.594 478.417 356.291 489.156 359.618C493.94 361.1 498.687 357.782 499.585 352.854C500.483 347.927 497.18 343.272 492.456 341.61C485.093 339.018 478.306 334.941 472.532 329.596C464.529 322.187 458.804 312.651 456.027 302.106C453.251 291.56 453.538 280.441 456.855 270.052C460.171 259.664 466.381 250.436 474.755 243.451C483.129 236.465 493.321 232.011 504.136 230.611C514.951 229.211 525.941 230.923 535.818 235.546C545.695 240.169 554.049 247.512 559.902 256.714C564.125 263.353 566.919 270.762 568.148 278.469C568.936 283.415 572.923 287.5 577.932 287.5Z" fill="white"/>
    <path id="player-play" opacity="0" d="M565 279.34C571.667 283.189 571.667 292.811 565 296.66L493 338.229C486.333 342.078 478 337.267 478 329.569L478 246.431C478 238.733 486.333 233.922 493 237.771L565 279.34Z" fill="white"/>
  </g>
  <defs>
    <clipPath id="clip0_0_1">
      <rect width="1024" height="576" fill="white"/>
    </clipPath>
    <linearGradient id="green-gradient" x1="0" y2="0" gradientTransform="rotate(-120)">
      <stop offset="0%" stop-color="#C3E062"></stop>
      <stop offset="100%" stop-color="#9BC76C"></stop>
    </linearGradient>
  </defs>
</svg>