<svg width="1024" height="576" viewBox="0 0 1024 576" fill="none" xmlns="http://www.w3.org/2000/svg">
  <style>
    @keyframes anim-left-to-right-pulse {
      0% {
        transform: translateX(0px);
        opacity: 1;
      }
      5% {
        transform: translateX(0px);
      }
      10% {
        transform: translateX(10px);
      }
      15% {
        transform: translateX(0px);
        opacity: 1;
      }
      20% {
        transform: translateX(30px);
        opacity: 0;
      }

      95% {
        transform: translateX(-30px);
        opacity: 0;
      }
      100% {
        transform: translateX(0px);
        opacity: 1;
      }
    }

    @keyframes anim-stretch-left-to-right {
      0% {
        width: 73%;
      }
      6% {
        width: 73%;
      }
      20% {
        width: 3%;
      }
      46% {
        width: 3%;
      }
    }

    @keyframes anim-short-appear-and-spin {
      0% {
        opacity: 0;
        transform: rotate(0deg);
      }

      6% {
        opacity: 0;
      }
      8% {
        opacity: 1;
      }
      48% {
        opacity: 1;
      }
      50% {
        opacity: 0;
      }

      100% {
        opacity: 0;
        transform: rotate(2160deg);
      }
    }

    @keyframes anim-scale-down-up {
      0% {
        transform: scale(1,1) translateY(0px);
      }
      5% {
        transform: scale(1,1) translateY(0px);
      }
      20% {
        transform: scale(0.7,0.7) translateY(35px);
      }
      45% {
        transform: scale(0.7,0.7) translateY(35px);
      }
      60% {
        transform: scale(1,1) translateY(0px);
      }
    }

    #player-skipper {
      animation-name: anim-left-to-right-pulse;
      animation-duration: 4s;
      animation-iteration-count: infinite;
      animation-direction: normal;
    }

    #player-timeline-watched {
      animation-name: anim-stretch-left-to-right;
      animation-duration: 4s;
      animation-iteration-count: infinite;
      animation-direction: normal;
    }

    #player-loader {
      animation-name: anim-short-appear-and-spin;
      animation-duration: 4s;
      animation-iteration-count: infinite;
      animation-direction: normal;
      animation-timing-function: linear;
      transform-origin: center;
    }

    #player {
      animation-name: anim-scale-down-up;
      animation-duration: 4s;
      animation-iteration-count: infinite;
      animation-direction: normal;
      transform-origin: center;
    }
  </style>
  <g id="persistent-fullscreen-element" clip-path="url(#clip0_0_1)">
    <rect id="bg" width="1024" height="576" rx="30" fill="#9BC76C"/>
    <rect id="tabs" x="13" y="15" width="997" height="51" rx="25.5" fill="white"/>
    <g id="player">
      <rect id="player-bg" width="1025" height="576" rx="30" fill="url(#green-gradient)"/>
      <path id="player-loader" d="M571.832 289C576.343 289 580.051 285.33 579.51 280.852C578.297 270.799 574.848 261.107 569.377 252.505C562.439 241.597 552.536 232.893 540.827 227.413C529.119 221.932 516.091 219.903 503.271 221.563C490.45 223.222 478.369 228.502 468.442 236.783C458.515 245.063 451.154 256.002 447.222 268.317C443.29 280.632 442.95 293.813 446.241 306.314C449.533 318.815 456.32 330.119 465.806 338.901C473.287 345.827 482.203 350.957 491.876 353.954C496.185 355.289 500.46 352.3 501.269 347.862C502.078 343.425 499.102 339.232 494.847 337.735C488.217 335.401 482.104 331.728 476.903 326.914C469.695 320.242 464.539 311.653 462.038 302.155C459.537 292.657 459.795 282.642 462.783 273.286C465.77 263.929 471.363 255.618 478.905 249.326C486.448 243.035 495.627 239.023 505.368 237.763C515.108 236.502 525.007 238.044 533.902 242.207C542.798 246.371 550.323 252.984 555.594 261.272C559.397 267.252 561.914 273.924 563.021 280.866C563.731 285.321 567.322 289 571.832 289Z" fill="white"/>
      <g id="player-timeline">
        <rect id="player-timeline-remaining" x="35" y="475" width="969" height="36" rx="18" fill="white"/>
        <rect id="player-timeline-watched" x="35" y="475" width="751" height="36" rx="18" fill="#9BC76C"/>
      </g>
      <g id="player-skipper">
        <rect id="player-skipper-bg" x="727" y="347" width="260" height="89" rx="44.5" fill="white"/>
        <path id="player-skipper-triangle" d="M952.866 387.521C955.568 389.053 955.568 392.947 952.866 394.479L922.224 411.86C919.557 413.373 916.25 411.447 916.25 408.381L916.25 373.619C916.25 370.553 919.557 368.627 922.224 370.14L952.866 387.521Z" fill="#9BC76C"/>
      </g>
    </g>
  </g>
  <defs>
    <clipPath id="clip0_0_1">
      <rect width="1024" height="576" fill="white"/>
    </clipPath>
    <linearGradient id="green-gradient" gradientTransform="rotate(120)">
      <stop offset="0%" stop-color="#BDF283"></stop>
      <stop offset="100%" stop-color="#C3E062"></stop>
    </linearGradient>
  </defs>
</svg>