<svg width="453" height="512" viewBox="0 0 453 512" fill="none" xmlns="http://www.w3.org/2000/svg">
<g id="green-512" clip-path="url(#clip0_0_1)">
<path id="logo" d="M433.917 289.085C459.361 274.375 459.361 237.625 433.917 222.915L57.2883 5.18186C31.8312 -9.53517 2.0294e-05 8.84785 1.90098e-05 38.2667L5.61858e-06 345.026L72.4287 386.489L143.525 345.837V151.912C143.525 142.713 148.44 134.216 156.411 129.634C164.382 125.052 174.193 125.083 182.134 129.716L360.553 233.804C368.459 238.416 373.314 246.889 373.297 256.046C373.281 265.203 368.396 273.658 360.474 278.242L263.693 334.239C251.417 341.342 235.711 337.142 228.612 324.858C221.514 312.574 225.711 296.858 237.987 289.755L296.485 255.908L194.878 196.632V360.747C194.878 369.967 189.941 378.48 181.941 383.055L85.1602 438.393C77.2622 442.909 67.5659 442.906 59.6703 438.386L3.03425e-06 404.226L0 473.733C-2.89005e-06 503.152 31.8312 521.535 57.2883 506.818L433.917 289.085Z" fill="url(#paint0_linear_0_1)"/>
</g>
<defs>
<linearGradient id="paint0_linear_0_1" x1="226.5" y1="0" x2="226.5" y2="512" gradientUnits="userSpaceOnUse">
<stop stop-color="#C3E062"/>
<stop offset="1" stop-color="#BDF283"/>
</linearGradient>
<clipPath id="clip0_0_1">
<rect width="453" height="512" fill="white"/>
</clipPath>
</defs>
</svg>
