<svg width="512" height="512" viewBox="0 0 512 512" fill="none" xmlns="http://www.w3.org/2000/svg">
<g id="square-black-512">
<path id="logo" d="M462.917 289.085C488.361 274.375 488.361 237.625 462.917 222.915L86.2883 5.18186C60.8312 -9.53517 29 8.84785 29 38.2667L29 345.026L101.429 386.489L172.525 345.837V151.912C172.525 142.713 177.44 134.216 185.411 129.634C193.382 125.052 203.193 125.083 211.134 129.716L389.553 233.804C397.459 238.416 402.314 246.889 402.297 256.046C402.281 265.203 397.396 273.658 389.474 278.242L292.693 334.239C280.417 341.342 264.711 337.142 257.612 324.858C250.514 312.574 254.711 296.858 266.987 289.755L325.485 255.908L223.878 196.632V360.747C223.878 369.967 218.941 378.48 210.941 383.055L114.16 438.393C106.262 442.909 96.5659 442.906 88.6703 438.386L29 404.226L29 473.733C29 503.152 60.8312 521.535 86.2883 506.818L462.917 289.085Z" fill="black"/>
</g>
</svg>
