<svg width="48" height="48" viewBox="0 0 48 48" fill="none" xmlns="http://www.w3.org/2000/svg">
<g id="square-green-48">
<path id="logo" d="M43.2307 27.1017C45.5898 25.7227 45.5898 22.2773 43.2307 20.8983L8.3115 0.485799C5.95124 -0.893922 3 0.829486 3 3.5875L3 32.3462L9.71524 36.2334L16.307 32.4222V14.2417C16.307 13.3793 16.7626 12.5828 17.5017 12.1532C18.2407 11.7236 19.1503 11.7265 19.8866 12.1609L36.4288 21.9191C37.1617 22.3515 37.6119 23.1459 37.6104 24.0043C37.6088 24.8627 37.1559 25.6555 36.4214 26.0852L27.4484 31.3349C26.3102 32.0008 24.854 31.607 24.1958 30.4554C23.5377 29.3038 23.9268 27.8304 25.065 27.1645L30.4887 23.9914L21.0682 18.4342V33.82C21.0682 34.6844 20.6104 35.4825 19.8687 35.9114L10.8956 41.0993C10.1634 41.5227 9.26439 41.5225 8.53235 41.0987L3 37.8962L3 44.4125C3 47.1705 5.95124 48.8939 8.3115 47.5142L43.2307 27.1017Z" fill="url(#paint0_linear_0_1)"/>
</g>
<defs>
<linearGradient id="paint0_linear_0_1" x1="24" y1="0" x2="24" y2="48" gradientUnits="userSpaceOnUse">
<stop stop-color="#8CB660"/>
<stop offset="1" stop-color="#9BC76C"/>
</linearGradient>
</defs>
</svg>
