<svg width="16" height="16" viewBox="0 0 16 16" fill="none" xmlns="http://www.w3.org/2000/svg">
<g id="square-green-16">
<path id="logo" d="M14.4102 9.0339C15.1966 8.57423 15.1966 7.42577 14.4102 6.9661L2.7705 0.161933C1.98375 -0.297974 1 0.276495 1 1.19583L1 10.7821L3.23841 12.0778L5.43566 10.8074V4.74724C5.43566 4.45978 5.58755 4.19426 5.83389 4.05106C6.08023 3.90786 6.38344 3.90884 6.62888 4.05362L12.1429 7.30638C12.3872 7.4505 12.5373 7.7153 12.5368 8.00144C12.5363 8.28758 12.3853 8.55183 12.1405 8.69506L9.14945 10.445C8.77006 10.6669 8.28465 10.5357 8.06527 10.1518C7.84589 9.76794 7.97561 9.27681 8.35501 9.05484L10.1629 7.99713L7.02273 6.14474V11.2733C7.02273 11.5615 6.87015 11.8275 6.6229 11.9705L3.63188 13.6998C3.3878 13.8409 3.08813 13.8408 2.84412 13.6996L1 12.6321L1 14.8042C1 15.7235 1.98375 16.298 2.7705 15.8381L14.4102 9.0339Z" fill="url(#paint0_linear_0_1)"/>
</g>
<defs>
<linearGradient id="paint0_linear_0_1" x1="8" y1="0" x2="8" y2="16" gradientUnits="userSpaceOnUse">
<stop stop-color="#C3E062"/>
<stop offset="1" stop-color="#BDF283"/>
</linearGradient>
</defs>
</svg>
